<svg width="7" height="16" viewBox="0 0 7 16" fill="none" xmlns="http://www.w3.org/2000/svg">
<path d="M6.228 12.732C6.228 13.1053 6.15333 13.46 6.004 13.796C5.87333 14.1133 5.68667 14.3933 5.444 14.636C5.20133 14.86 4.912 15.0373 4.576 15.168C4.25867 15.3173 3.92267 15.392 3.568 15.392C3.19467 15.392 2.84933 15.3173 2.532 15.168C2.21467 15.0373 1.93467 14.86 1.692 14.636C1.44933 14.3933 1.25333 14.1133 1.104 13.796C0.973334 13.46 0.908 13.1053 0.908 12.732C0.908 12.3587 0.973334 12.0133 1.104 11.696C1.25333 11.36 1.44933 11.08 1.692 10.856C1.93467 10.6133 2.21467 10.4267 2.532 10.296C2.84933 10.1467 3.19467 10.072 3.568 10.072C3.92267 10.072 4.25867 10.1467 4.576 10.296C4.912 10.4267 5.20133 10.6133 5.444 10.856C5.68667 11.08 5.87333 11.36 6.004 11.696C6.15333 12.0133 6.228 12.3587 6.228 12.732ZM6.228 3.38C6.228 3.75333 6.15333 4.108 6.004 4.444C5.87333 4.76133 5.68667 5.04133 5.444 5.284C5.20133 5.508 4.912 5.69467 4.576 5.844C4.25867 5.97467 3.92267 6.04 3.568 6.04C3.19467 6.04 2.84933 5.97467 2.532 5.844C2.21467 5.69467 1.93467 5.508 1.692 5.284C1.44933 5.04133 1.25333 4.76133 1.104 4.444C0.973334 4.108 0.908 3.75333 0.908 3.38C0.908 3.00667 0.973334 2.66133 1.104 2.344C1.25333 2.008 1.44933 1.728 1.692 1.504C1.93467 1.26133 2.21467 1.07467 2.532 0.943999C2.84933 0.794665 3.19467 0.719999 3.568 0.719999C3.92267 0.719999 4.25867 0.794665 4.576 0.943999C4.912 1.07467 5.20133 1.26133 5.444 1.504C5.68667 1.728 5.87333 2.008 6.004 2.344C6.15333 2.66133 6.228 3.00667 6.228 3.38Z" fill="white"/>
</svg>
